<mxfile host="Electron" modified="2024-05-19T04:14:44.663Z" agent="Mozilla/5.0 (Macintosh; Intel Mac OS X 10_15_7) AppleWebKit/537.36 (KHTML, like Gecko) draw.io/24.4.0 Chrome/120.0.6099.109 Electron/28.1.0 Safari/537.36" etag="LKhKQaH27uYGUMVuKXTu" version="24.4.0" type="device">
  <diagram name="페이지-1" id="wB8HYDWqvyCD2lqpOEuN">
    <mxGraphModel dx="1114" dy="894" grid="1" gridSize="10" guides="1" tooltips="1" connect="1" arrows="1" fold="1" page="1" pageScale="1" pageWidth="827" pageHeight="1169" math="0" shadow="0">
      <root>
        <mxCell id="0" />
        <mxCell id="1" parent="0" />
        <mxCell id="2PccQYKUj8Xnd4PuFK4g-7" style="edgeStyle=orthogonalEdgeStyle;rounded=0;orthogonalLoop=1;jettySize=auto;html=1;exitX=0.75;exitY=1;exitDx=0;exitDy=0;entryX=0.75;entryY=0;entryDx=0;entryDy=0;dashed=1;endArrow=block;endFill=0;" edge="1" parent="1" source="2PccQYKUj8Xnd4PuFK4g-1" target="2PccQYKUj8Xnd4PuFK4g-2">
          <mxGeometry relative="1" as="geometry" />
        </mxCell>
        <mxCell id="2PccQYKUj8Xnd4PuFK4g-1" value="Infrastructure" style="rounded=1;whiteSpace=wrap;html=1;" vertex="1" parent="1">
          <mxGeometry x="160" y="100" width="120" height="40" as="geometry" />
        </mxCell>
        <mxCell id="2PccQYKUj8Xnd4PuFK4g-2" value="Domain" style="rounded=1;whiteSpace=wrap;html=1;" vertex="1" parent="1">
          <mxGeometry x="160" y="260" width="120" height="40" as="geometry" />
        </mxCell>
        <mxCell id="2PccQYKUj8Xnd4PuFK4g-3" value="Application&lt;div&gt;(응용)&lt;/div&gt;" style="rounded=1;whiteSpace=wrap;html=1;" vertex="1" parent="1">
          <mxGeometry x="90" y="180" width="120" height="40" as="geometry" />
        </mxCell>
        <mxCell id="2PccQYKUj8Xnd4PuFK4g-4" style="edgeStyle=orthogonalEdgeStyle;rounded=0;orthogonalLoop=1;jettySize=auto;html=1;exitX=0.75;exitY=1;exitDx=0;exitDy=0;entryX=0.167;entryY=0.025;entryDx=0;entryDy=0;entryPerimeter=0;dashed=1;endArrow=open;endFill=0;" edge="1" parent="1">
          <mxGeometry relative="1" as="geometry">
            <mxPoint x="191" y="220" as="sourcePoint" />
            <mxPoint x="191.03999999999996" y="261" as="targetPoint" />
          </mxGeometry>
        </mxCell>
        <mxCell id="2PccQYKUj8Xnd4PuFK4g-6" style="edgeStyle=orthogonalEdgeStyle;rounded=0;orthogonalLoop=1;jettySize=auto;html=1;exitX=0.25;exitY=1;exitDx=0;exitDy=0;entryX=0.833;entryY=-0.05;entryDx=0;entryDy=0;entryPerimeter=0;dashed=1;endArrow=block;endFill=0;" edge="1" parent="1" source="2PccQYKUj8Xnd4PuFK4g-1" target="2PccQYKUj8Xnd4PuFK4g-3">
          <mxGeometry relative="1" as="geometry" />
        </mxCell>
      </root>
    </mxGraphModel>
  </diagram>
</mxfile>
